DataType=double
version=3
OpenSimVersion=4.3
inDegrees=no
endheader
time	ground_thorax_rot_x	ground_thorax_rot_y	ground_thorax_rot_z	ground_thorax_tx	ground_thorax_ty	ground_thorax_tz	clav_prot	clav_elev	scapula_abduction	scapula_elevation	scapula_upward_rot	scapula_winging	shoulder_elv	plane_of_elev	axial_rot	elbow_flexion	pro_sup
8.89231	-0.08350986951159972	-0.1913933158428867	-0.1805516048415014	-0.6666371706647712	0.2506068155902461	0.4182354719518067	-0.3962914942307473	-0.05189176176760647	-0.2571854229296953	-0.249622926075923	0.7688883913762524	0.2829261380688717	1.370804923678153	-0.546030495267228	-0.2669350287381743	0.3350291442832731	1.159151593303195
8.90227	-0.08485710043516155	-0.1913230127775185	-0.1803401928622048	-0.6664578240049216	0.2507378999246934	0.4193863795864852	-0.3952686635535742	-0.05282935287705132	-0.2586727813275435	-0.2497789609019697	0.7657886158820004	0.2837608192006632	1.362123442631714	-0.5475372910887937	-0.2663301951798312	0.3356148923123884	1.161375039602303
8.912229999999999	-0.08226874097121402	-0.1913348921751394	-0.1802236269977263	-0.6663572443546498	0.2505121794619474	0.4171364952929431	-0.3941702618818429	-0.05386630130469031	-0.258707740975315	-0.2501292822669272	0.7635767619886694	0.2847875598682599	1.358665439919057	-0.5488639457055101	-0.2661666395189747	0.3350066675678113	1.161701711206154
8.92019	-0.08351757490822356	-0.1909621224634613	-0.1804484443341879	-0.6665344324288939	0.2505441618015135	0.4180857489660698	-0.3930392970244316	-0.05463665966138059	-0.2604748894797002	-0.2500886881686896	0.7601266171857362	0.2856785186687604	1.34934626974371	-0.5510492018234928	-0.2669438540965189	0.3356751986418193	1.163901834291295
8.93314	-0.0806967384139107	-0.1911821738224944	-0.1802303330652037	-0.6662903808991524	0.2503447964026041	0.4156398791263464	-0.3919440339126316	-0.05584791766980401	-0.260710750546704	-0.2505358479679287	0.7576220217273637	0.2868851638773667	1.345142338657882	-0.5525919940130221	-0.2671067304665777	0.3351006695129878	1.164326184295047
8.94309	-0.08254265639682597	-0.1909711068016666	-0.1805942051823828	-0.6665826746324218	0.2504020510876728	0.4171125512865261	-0.3903569869245001	-0.05691606733922437	-0.2628250209797503	-0.2504690967890056	0.7531101897378197	0.2880867162071904	1.334161866943113	-0.5551434091669294	-0.2704999899592282	0.3361035934401474	1.166274370087345
8.95106	-0.0812209214771035	-0.1872917393101275	-0.1825017108205786	-0.6678491775980466	0.250306944407919	0.4156369145287254	-0.3991702623348519	-0.05946165754805136	-0.2709733703083402	-0.2540705967867225	0.7595497715680065	0.2871217744754028	1.309872082752914	-0.5586688617440496	-0.3047546707708806	0.3482617173214703	1.179877763828173
8.96002	-0.08084332800014395	-0.1878987633703743	-0.1827216421631754	-0.6680674193270012	0.2500171298687485	0.4152419574782188	-0.395881461256644	-0.05803494384275818	-0.2709097641563516	-0.2519810268870267	0.7549638831628841	0.2875426927429014	1.301480111945712	-0.5610316027226501	-0.3040988780308648	0.3460841767317599	1.181693574759544
8.97396	-0.07998160062806796	-0.1885546403495005	-0.1803833773982025	-0.6661541149668425	0.2502295879559704	0.414894097423238	-0.3933818021829035	-0.05827699120972894	-0.2704751934792466	-0.2513751191123308	0.7512767057501244	0.2885404609640146	1.292382095550004	-0.5640035237976841	-0.3065816197549225	0.3454851965632779	1.183802756606308
8.98193	-0.07626667292037666	-0.1890490498173276	-0.1805515313851986	-0.6662627367857333	0.2498446476824045	0.4116915067538717	-0.3915479915345407	-0.05946693764233225	-0.2705675885381668	-0.2515869325629913	0.7477374523855352	0.2899592644583551	1.287171477504898	-0.5661407224140325	-0.306791640433229	0.3445030408881892	1.184171968210108
8.99189	-0.0781078155315089	-0.1883162924642529	-0.1823490315054173	-0.6677532138695406	0.2497939137915642	0.4130905456775341	-0.3934986553940061	-0.05998412672713472	-0.274222378568215	-0.2520842761380139	0.7478423589000339	0.2897606634812104	1.262887071776097	-0.5719081083036976	-0.3427833957673075	0.3542796440768255	1.190736291531363
